<?xml version="1.0" encoding="UTF-8" standalone="no"?>
<!-- Created with Inkscape (http://www.inkscape.org/) -->

<svg
   xmlns:dc="http://purl.org/dc/elements/1.1/"
   xmlns:cc="http://creativecommons.org/ns#"
   xmlns:rdf="http://www.w3.org/1999/02/22-rdf-syntax-ns#"
   xmlns:svg="http://www.w3.org/2000/svg"
   xmlns="http://www.w3.org/2000/svg"
   xmlns:sodipodi="http://sodipodi.sourceforge.net/DTD/sodipodi-0.dtd"
   xmlns:inkscape="http://www.inkscape.org/namespaces/inkscape"
   version="1.1"
   id="svg9911"
   xml:space="preserve"
   width="800"
   height="800"
   viewBox="0 0 800 800"
   sodipodi:docname="feather-pen-publicdomainvectors.org.svg"
   inkscape:version="0.92.4 (5da689c313, 2019-01-14)"><metadata
     id="metadata9917"><rdf:RDF><cc:Work
         rdf:about=""><dc:format>image/svg+xml</dc:format><dc:type
           rdf:resource="http://purl.org/dc/dcmitype/StillImage" /><dc:title></dc:title></cc:Work></rdf:RDF></metadata><defs
     id="defs9915"><clipPath
       clipPathUnits="userSpaceOnUse"
       id="clipPath9927"><path
         d="M 0,600 H 600 V 0 H 0 Z"
         id="path9925"
         inkscape:connector-curvature="0" /></clipPath></defs><sodipodi:namedview
     pagecolor="#ffffff"
     bordercolor="#666666"
     borderopacity="1"
     objecttolerance="10"
     gridtolerance="10"
     guidetolerance="10"
     inkscape:pageopacity="0"
     inkscape:pageshadow="2"
     inkscape:window-width="1920"
     inkscape:window-height="1018"
     id="namedview9913"
     showgrid="false"
     inkscape:zoom="0.97453307"
     inkscape:cx="396.61017"
     inkscape:cy="388.13559"
     inkscape:window-x="-8"
     inkscape:window-y="-8"
     inkscape:window-maximized="1"
     inkscape:current-layer="g9919" /><g
     id="g9919"
     inkscape:groupmode="layer"
     inkscape:label="feather-pen-publicdomainvectors.org"
     transform="matrix(1.3333333,0,0,-1.3333333,0,800)"><g
       id="g9921"><g
         id="g9923"
         clip-path="url(#clipPath9927)"><path
           d="m 474.662,579.158 c -2.57,-0.915 -5.258,-1.873 -8.062,-2.873 -2.793,-1.022 -5.729,-2.011 -8.723,-3.176 -2.981,-1.196 -6.068,-2.435 -9.26,-3.716 -6.426,-2.456 -13.06,-5.548 -20.117,-8.661 -3.553,-1.507 -7.055,-3.348 -10.705,-5.094 -3.619,-1.816 -7.41,-3.504 -11.115,-5.542 -1.877,-0.964 -3.764,-1.954 -5.664,-2.966 l -5.012,22.907 c 3.56,1.168 7.127,2.272 10.709,3.301 0.549,-0.48 1.215,-1.116 1.682,-1.564 2.566,-2.454 4.99,-4.773 8.244,-4.773 0.525,0 1.049,0.065 1.552,0.194 4.291,1.098 5.438,5.423 6.364,8.899 0.138,0.536 0.34,1.285 0.529,1.896 12.52,2.689 25.523,3.997 39.682,3.997 5.578,0 11.197,-0.203 16.947,-0.562 -2.246,-0.716 -4.641,-1.389 -7.051,-2.267 m -84.101,-82.46 c -1.682,-0.491 -6.622,-0.497 -9.637,-0.497 -8.473,-0.008 -13.817,-0.173 -16.793,-3.287 -4.625,-4.838 -0.016,-10.945 3.033,-14.986 0.691,-0.915 1.701,-2.255 2.352,-3.274 -5.903,-6.419 -11.666,-12.932 -17.368,-19.479 l -46.638,8.103 c 4.724,4.093 9.469,8.092 14.232,11.961 15.975,13.009 32.043,24.8 47.865,35.063 15.78,10.316 31.135,19.399 45.737,26.964 3.597,1.995 7.275,3.639 10.785,5.417 3.541,1.705 6.939,3.511 10.387,4.983 6.843,3.04 13.277,6.071 19.507,8.471 3.096,1.254 6.09,2.467 8.981,3.637 2.904,1.141 5.75,2.107 8.461,3.108 1.08,0.393 2.131,0.777 3.176,1.157 -28.381,-16.785 -55.512,-38.61 -84.08,-67.341 m -48.471,-53.221 -48.64,9.076 c 2.89,2.637 5.791,5.248 8.706,7.809 l 47.35,-8.225 c -2.488,-2.88 -4.963,-5.764 -7.416,-8.66 m -12.027,-14.391 -51.474,9.493 c 3.865,3.752 7.759,7.44 11.673,11.06 l 49.271,-9.192 c -3.181,-3.777 -6.34,-7.563 -9.47,-11.361 m -16.034,-19.749 -55.591,8.838 c 1.784,1.881 3.578,3.75 5.376,5.606 l 53.844,-9.93 c -1.211,-1.506 -2.426,-3.008 -3.629,-4.514 m -34.685,-44.14 c -6.036,-7.753 -11.983,-15.395 -17.848,-22.866 l -64.66,2.074 c 9.998,13.488 20.493,26.79 31.339,39.79 5.306,6.351 10.719,12.61 16.223,18.76 l 57.329,-9.111 c -7.551,-9.59 -15.004,-19.16 -22.383,-28.647 m -33.761,-42.914 -64.145,0.64 c 2.135,3.072 4.283,6.14 6.469,9.202 2.122,2.981 4.278,5.948 6.452,8.911 l 64.493,-2.067 c -4.471,-5.678 -8.894,-11.249 -13.269,-16.686 m -24.596,-29.502 -58.06,2.409 c 5.196,8.095 10.573,16.212 16.14,24.309 l 63.754,-0.636 c -7.409,-9.145 -14.683,-17.883 -21.834,-26.082 m -11.409,-12.717 -54.511,2.661 c 1.185,1.913 2.381,3.827 3.589,5.746 l 56.449,-2.345 c -1.852,-2.062 -3.692,-4.08 -5.527,-6.062 m 79.965,-46.145 c 17.547,-5.668 31.404,-10.146 38.912,-10.915 l 0.309,-0.033 51.523,3.965 c 3.461,-8.8 15.141,-42.548 6.012,-76.824 l -57.35,5.399 c 0.356,2.043 0.656,4.298 0.901,6.57 0.713,6.691 0.97,13.339 0.97,13.339 0,0 -1.965,-6.378 -4.324,-12.538 -1.111,-2.903 -2.322,-5.747 -3.369,-7.778 l -0.545,-0.827 c -9.174,-13.861 -17.709,-14.976 -30.627,-16.667 -5.243,-0.686 -11.184,-1.464 -17.879,-3.232 -6.763,-1.786 -12.64,-4.091 -18.325,-6.324 -11.001,-4.316 -21.395,-8.392 -37.211,-8.394 -4.193,0 -8.697,0.295 -13.384,0.876 -6.999,0.868 -13.85,1.29 -20.937,1.29 -0.117,0 -0.231,-0.002 -0.347,-0.004 l -0.021,0.044 -0.083,-0.044 c -9.979,-0.025 -18.584,-0.867 -26.905,-1.682 -5.991,-0.588 -11.692,-1.121 -17.254,-1.277 l -2.921,8.049 -0.885,-2.356 0.358,-5.752 c -1.421,0.008 -2.797,0.047 -4.135,0.118 -0.137,2.744 -2.106,8.863 -2.183,10.389 l -1.651,-2.988 c 0.113,-2.246 0.256,-4.887 0.37,-7.135 -0.605,0.06 -1.21,0.123 -1.807,0.198 -5.563,0.704 -11.962,1.062 -19.014,1.062 -3.437,0 -6.794,-0.085 -9.986,-0.219 -1.192,3.493 -3.452,9.777 -4.932,11.826 -1.838,2.548 -8.818,1.501 -14.715,0.048 0.375,0.888 0.754,1.791 1.136,2.696 8.603,8.042 21.84,11.991 40.173,11.991 5.58,0 10.854,-0.351 14.827,-0.655 l 0.392,-0.016 h 0.002 c 0.139,0 0.299,0.022 0.45,0.033 0.418,-0.401 0.807,-0.865 1.23,-1.325 0.422,-0.473 0.867,-0.95 1.251,-1.413 0.348,-0.481 0.67,-0.93 0.947,-1.312 0.568,-0.818 0.948,-1.364 0.948,-1.364 0,0 0.036,0.658 0.091,1.642 0.021,0.515 0.045,1.118 0.071,1.763 -0.02,0.636 -0.074,1.3 -0.116,1.988 -0.036,0.428 -0.062,0.857 -0.097,1.282 5.201,2.126 13.967,6.989 28.796,15.403 11.918,6.762 24.205,13.732 30.336,16.19 1.109,0.307 2.32,0.615 3.552,0.868 2.031,0.418 4.088,0.677 5.568,0.513 0.739,-0.078 1.31,-0.286 1.66,-0.551 0.351,-0.266 0.452,-0.551 0.469,-0.538 -0.024,-0.007 0.062,0.275 -0.1,0.787 -0.163,0.505 -0.634,1.17 -1.333,1.759 -0.15,0.13 -0.336,0.25 -0.504,0.376 l 0.901,0.305 -4.151,1.617 c -0.629,0.303 -1.272,0.595 -1.925,0.868 -1.228,0.511 -2.457,0.958 -3.605,1.351 -7.107,3.395 -16.856,15.15 -20.974,20.665 0.224,0.771 0.468,1.574 0.73,2.376 0.583,1.788 1.227,3.567 1.885,4.751 0.322,0.575 0.702,1.047 0.928,0.928 0.287,-0.162 0.35,-0.488 0.365,-0.458 0,0 -0.004,0.061 -0.01,0.173 -0.002,0.115 -0.005,0.296 -0.167,0.513 -0.172,0.264 -0.654,0.249 -0.939,0.114 -0.33,-0.12 -0.637,-0.311 -0.958,-0.529 -1.268,-0.889 -2.683,-2.284 -4.053,-3.707 -0.438,-0.458 -0.864,-0.916 -1.281,-1.369 l -1.472,-0.68 c -4.565,-2.107 -17.697,-2.967 -29.285,-3.723 -21.859,-1.43 -31.769,-2.509 -34.95,-6.849 -0.545,-0.739 -1.121,-1.476 -1.712,-2.209 0.967,1.998 1.964,4.011 3.03,6.032 2.052,3.999 4.14,8.067 6.262,12.197 0.491,0.96 0.993,1.935 1.488,2.903 l 1.685,-0.211 c 2.344,-0.293 4.739,-0.442 7.121,-0.442 24.142,0 48.513,15.212 73.9,39.471 27.117,-2.455 62.336,-13.816 88.873,-22.388 M 180.293,108.078 c -0.859,0.073 -3.752,1.039 -9.716,4.27 -0.196,0.722 -0.405,1.407 -0.617,2.038 3.996,0.286 8.161,0.488 12.566,0.53 0.345,-2.414 0.053,-5.107 -2.233,-6.838 m -14.128,-7.107 c -2.323,0.508 -11.179,6.152 -12.883,7.449 l -0.026,-0.034 c -0.347,1.663 -0.764,3.169 -1.139,4.375 1.786,0.164 3.589,0.341 5.42,0.52 2.901,0.284 5.842,0.571 8.856,0.824 1.362,-3.763 3.108,-10.383 -0.228,-13.134 M 148.67,95.913 c -1.768,0.702 -7.643,4.097 -26.235,17.004 1.179,-0.111 2.346,-0.229 3.456,-0.369 3.424,-0.435 6.957,-0.647 10.793,-0.647 3.94,0 7.888,0.237 11.905,0.562 0.477,-1.484 0.994,-3.391 1.371,-5.4 l -0.033,-0.042 0.053,-0.06 c 0.787,-4.245 0.934,-8.924 -1.31,-11.048 m -73.446,22.459 c -0.547,0.345 -1.349,1.009 -1.925,2.024 1.028,2.475 2.058,5.175 3.15,7.759 5.869,1.58 12.378,2.651 13.581,1.881 0.965,-1.336 2.751,-6.004 4.138,-9.979 -9.091,-0.502 -16.299,-1.349 -18.944,-1.685 m 80.094,76.412 c -10.292,-1.437 -20.015,-2.799 -24.742,-4.057 l -8.24,3.541 6.28,-5.916 c -1.786,-7.066 -14.509,-23.105 -18.953,-24.677 l -0.727,-0.256 -8.462,0.512 9.399,-3.786 8.198,-6.485 c -10.735,-0.112 -19.933,-1.514 -27.623,-4.276 -1.252,0.877 -2.66,1.891 -3.827,2.802 0.77,1.75 1.561,3.515 2.386,5.299 1.553,3.45 3.145,6.989 4.774,10.612 0.817,1.809 1.64,3.642 2.475,5.495 0.768,1.609 1.549,3.237 2.331,4.878 6.412,5.016 11.705,10.35 15.806,15.947 2.423,2.321 18.959,3.404 29.903,4.119 11.56,0.756 22.57,1.476 29.037,3.364 0.788,-1.035 1.826,-2.369 3.053,-3.869 -5.253,-1.039 -14.06,-2.27 -21.068,-3.247 m -5.275,-9.99 -0.571,0.014 -6.56,2.729 5.189,-5.078 C 146.61,176.775 137.938,166.09 132.173,162.06 l -7.491,-1.289 6.743,-1.161 6.679,-5.283 c -1.591,-0.728 -2.818,-1.206 -3.489,-1.308 -3.048,0.235 -6.83,0.489 -10.944,0.605 l -10.366,8.199 c 6.552,4.727 16.775,18.588 18.652,25.702 4.733,1.175 14.435,2.531 23.836,3.843 12.509,1.746 19.33,2.807 23.101,3.687 1.443,-1.667 3.038,-3.418 4.725,-5.138 -8.957,-2.317 -25.884,-5.339 -33.576,-5.123 m 10.08,-6.163 -3.92,3.113 c 8.526,0.869 22.383,3.045 30.203,5.456 1.501,-1.394 3.039,-2.714 4.588,-3.878 -4.428,-1.791 -21.61,-4.83 -30.871,-4.691 m -18.187,-21.61 -1.385,-0.238 -4.711,3.729 c 6.21,5.047 13.757,14.676 15.541,20.853 0.919,0.039 2.066,0.121 3.367,0.239 l 2.99,-4.958 c -1.183,-5.383 -9.671,-15.408 -15.802,-19.625 m 19.003,18.17 c 4.211,0.079 11.77,0.802 18.695,1.954 -4.624,-2.547 -9.665,-5.407 -14.826,-8.334 -3.92,-2.224 -8.329,-4.724 -12.564,-7.073 3.943,4.32 7.525,9.381 8.695,13.453 m -94.963,-31.53 c -5.317,-5.882 -12.127,-10.157 -18.508,-11.849 2.475,4.479 7.854,14.547 8.225,18.015 0.443,4.114 -2.806,6.044 -6.159,7.084 1.471,9.552 7.799,25.662 9.85,28.694 2.953,4.367 29.609,35.459 36.952,39.326 2.714,1.428 8.322,3.337 16.042,5.939 -0.318,-0.613 -0.635,-1.227 -0.953,-1.838 l -0.409,-0.793 -0.426,-0.861 -0.782,-1.59 c -1.038,-2.112 -2.073,-4.212 -3.099,-6.293 -2.048,-4.168 -4.066,-8.269 -6.05,-12.304 -2.025,-3.998 -3.837,-8.089 -5.676,-12.052 -1.826,-3.972 -3.619,-7.868 -5.374,-11.685 -0.683,-1.49 -1.352,-2.956 -2.022,-4.421 -3.198,-2.129 -6.629,-4.192 -10.299,-6.184 l -1.315,-0.714 -4.938,0.988 4.401,-2.977 0.067,-0.671 c 0.893,-8.867 -2.49,-18.033 -9.527,-25.814 M 42.458,131.846 c 1.104,4.381 3.24,11.955 6.271,21.69 2.684,-0.852 3.697,-1.87 3.538,-3.343 -0.274,-2.576 -5.27,-12.202 -8.59,-18.106 -0.383,-0.093 -0.799,-0.175 -1.219,-0.241 m 154.377,135.04 c -24.716,-24.361 -47.943,-39.713 -70.065,-39.713 -0.877,0 -1.756,0.027 -2.633,0.076 -0.128,0.42 -0.244,0.843 -0.367,1.266 7.129,13.267 14.87,26.928 23.153,40.805 z m -73.252,27.049 c 1.188,4.743 7.34,19.325 18.28,39.594 l 8.082,-35.855 c -2.585,-4.191 -5.126,-8.373 -7.611,-12.542 -7.821,-13.105 -15.087,-26.094 -21.854,-38.782 -1.954,20.107 1.166,39.834 3.103,47.585 m 37.805,73.023 9.103,-37.468 c -2.538,-3.761 -5.047,-7.525 -7.505,-11.289 l -8.545,37.39 c 2.211,3.7 4.503,7.472 6.947,11.367 m 41.322,7.16 c -6.558,-8.475 -12.916,-17.067 -19.083,-25.707 l -9.261,38.38 c 5.966,8.771 12.43,17.815 19.413,27.002 z m 2.865,54.695 10.064,-38.49 c -3.449,-4.195 -6.844,-8.425 -10.184,-12.69 l -8.946,39.726 c 2.935,3.803 5.96,7.622 9.066,11.454 m 8.574,10.34 c 1.424,-1.546 3.403,-3.215 6.239,-3.215 1.413,0 3.498,0.44 5.405,2.541 2.318,2.556 4.078,7.258 6.753,14.715 0.113,0.313 0.233,0.646 0.355,0.987 l 8.715,-33.333 -0.204,0.032 -0.142,-0.884 c -7.828,-8.593 -15.486,-17.401 -22.927,-26.387 l -10.07,38.51 c 1.928,2.343 3.885,4.69 5.876,7.034 m 23.355,25.866 c 8.607,8.95 17.33,17.401 26.16,25.367 l 8.837,-38.203 c -9.521,-9.205 -18.882,-18.787 -28.015,-28.678 l -9.489,36.295 c 0.95,2.413 1.885,4.524 2.507,5.219 m 41.02,38.231 9.572,-36.456 c -4.258,-3.863 -8.496,-7.802 -12.701,-11.821 l -8.799,38.04 c 3.955,3.509 7.931,6.923 11.928,10.237 m 11.321,9.067 8.442,-36.468 c -2.444,-2.121 -4.878,-4.28 -7.31,-6.458 l -9.521,36.26 c 2.786,2.271 5.583,4.492 8.389,6.666 m 18.94,13.853 8.065,-34.83 c -1.252,-1.006 -2.502,-2.031 -3.754,-3.049 l -8.149,35.197 c 1.278,0.901 2.557,1.801 3.838,2.682 m 21.389,13.694 7.771,-32.341 c -2.035,-1.49 -4.07,-2.999 -6.105,-4.532 l -7.69,33.214 c 2.004,1.241 4.012,2.464 6.024,3.659 m 27.672,14.811 6.5,-29.086 c -1.586,-1.013 -3.176,-2.027 -4.772,-3.063 -2.156,-1.407 -4.316,-2.846 -6.476,-4.31 l -7.305,30.399 c 4.002,2.112 8.02,4.13 12.053,6.06 m 19.259,8.459 5.17,-26.542 c -4.892,-2.884 -9.841,-5.903 -14.836,-9.046 l -6.398,28.631 c 5.328,2.48 10.684,4.798 16.064,6.957 m 15.616,5.794 5.142,-23.507 c -4.099,-2.226 -8.246,-4.554 -12.435,-6.987 l -5.065,25.99 c 4.106,1.596 8.225,3.095 12.358,4.504 m 131.519,18.306 c -4.162,0.571 -8.193,1.105 -12.123,1.597 l -0.342,1.237 c 0,0 -1.043,-0.283 -3.041,-0.821 -15.775,1.903 -29.923,3.08 -43.968,3.08 -15.577,0 -29.856,-1.514 -43.655,-4.625 -3.955,-0.891 -5.355,-4.633 -6.244,-7.812 -2.32,2.195 -4.592,4.121 -7.554,4.121 -0.577,0 -1.145,-0.079 -1.694,-0.234 -62.094,-17.469 -121.164,-55.016 -175.568,-111.591 -2.495,-2.595 -4.399,-7.587 -7.236,-15.5 -0.898,-2.498 -2.081,-5.796 -3.108,-8.221 -1.367,1.379 -3.196,2.717 -5.712,2.717 -1.178,0 -3.45,-0.344 -5.435,-2.653 -19.27,-22.421 -35.964,-45.31 -49.766,-66.403 L 158,380.908 c -7.251,-11.135 -13.692,-21.751 -19.268,-31.514 l -0.319,-0.559 c -14.342,-25.177 -22.91,-44.593 -24.862,-52.395 -2.317,-9.27 -6.182,-34.469 -2.36,-58.671 -0.083,-0.028 -0.173,-0.059 -0.255,-0.086 -8.778,-2.96 -14.649,-4.915 -17.949,-6.654 -9.263,-4.874 -37.268,-38.133 -39.586,-41.563 -2.781,-4.11 -9.734,-21.983 -11.091,-32.504 -1.159,-3.697 -8.147,-25.318 -8.147,-29.075 v -2.855 l 3.074,-0.531 c 1.358,-0.257 3.2,-0.389 4.664,-0.389 9.569,0 20.475,5.499 28.745,14.383 -0.861,-2.147 -1.745,-4.264 -2.565,-6.312 -0.066,-0.162 -0.144,-0.311 -0.206,-0.465 -0.163,-0.262 -0.351,-0.507 -0.511,-0.774 l -0.261,-0.529 c -0.473,-1.235 -0.827,-2.43 -1.067,-3.59 -0.399,-1.109 -0.798,-2.217 -1.184,-3.292 C 62.905,118 61.245,112.869 59.802,108.212 56.967,98.866 55.46,91.21 54.404,86.058 c -0.975,-5.191 -1.321,-8.003 -1.321,-8.003 0,0 1.496,2.434 3.97,7.079 1.189,2.34 2.697,5.207 4.321,8.616 1.59,3.428 3.414,7.369 5.458,11.78 1.127,2.467 2.305,5.104 3.509,7.877 1.502,-1.203 2.844,-1.732 3.097,-1.826 l 0.807,-0.296 0.852,0.117 c 0.155,0.023 15.734,2.154 32.644,2.154 2.801,0 5.458,-0.073 8.02,-0.188 25.754,-18.023 31.429,-21.035 33.386,-21.035 0.468,0 0.726,0.171 0.992,0.349 3.379,2.346 4.088,6.775 3.778,11.12 3.642,-2.469 9.68,-6.205 12.706,-6.205 0.475,0.001 0.874,0.091 1.179,0.297 3.34,2.317 3.977,6.288 3.593,10.121 5.282,-2.709 7.79,-3.406 9.122,-3.406 0.809,0 1.19,0.256 1.503,0.465 3.563,2.473 4.353,6.284 3.984,9.83 6.17,-0.062 12.181,-0.449 18.303,-1.207 4.969,-0.615 9.755,-0.929 14.233,-0.929 17.12,0.002 28.615,4.51 39.73,8.871 5.5,2.158 11.189,4.39 17.565,6.074 6.268,1.656 11.732,2.372 17.012,3.063 12.538,1.641 23.45,3.095 33.872,17.405 l 0.115,-0.077 c 0,0 0.094,0.212 0.254,0.569 0.021,0.029 0.043,0.054 0.062,0.083 l 64.176,-6.039 0.811,2.709 c 12.859,43.029 -5.686,84.804 -6.479,86.56 l -0.998,2.201 -55.801,-4.293 c -6.894,0.794 -20.957,5.335 -37.201,10.583 -25.029,8.086 -57.679,18.617 -84.634,22.063 25.489,25.648 52.055,59.781 80.478,96.308 28.625,36.783 58.225,74.819 91.043,110.347 4.494,4.865 0.088,10.703 -3.129,14.964 -0.342,0.451 -0.76,1.008 -1.174,1.573 2.141,0.123 4.791,0.126 6.69,0.127 8.338,0.008 13.601,0.165 16.574,3.162 42.933,43.249 82.385,70.476 127.914,88.278 l 18.519,7.241 z"
           style="fill:#000000;fill-opacity:1;fill-rule:nonzero;stroke:none"
           id="path9929"
           inkscape:connector-curvature="0" /></g></g></g></svg>