<?xml version="1.0" encoding="UTF-8" standalone="no"?>
<!-- Created with Inkscape (http://www.inkscape.org/) -->

<!-- viewBox must be put back at 0 0 800 800 -->
<svg
   xmlns:dc="http://purl.org/dc/elements/1.1/"
   xmlns:cc="http://creativecommons.org/ns#"
   xmlns:rdf="http://www.w3.org/1999/02/22-rdf-syntax-ns#"
   xmlns:svg="http://www.w3.org/2000/svg"
   xmlns="http://www.w3.org/2000/svg"
   xmlns:sodipodi="http://sodipodi.sourceforge.net/DTD/sodipodi-0.dtd"
   xmlns:inkscape="http://www.inkscape.org/namespaces/inkscape"
   version="1.1"
   id="svg9911"
   xml:space="preserve"
   viewBox="0 0 800 800"
preserveAspectRatio="xMidYMid meet"
   sodipodi:docname="feather-pen-publicdomainvectors.org.svg"
   inkscape:version="0.92.4 (5da689c313, 2019-01-14)"><metadata
     id="metadata9917"><rdf:RDF><cc:Work
         rdf:about=""><dc:format>image/svg+xml</dc:format><dc:type
           rdf:resource="http://purl.org/dc/dcmitype/StillImage" /><dc:title></dc:title></cc:Work></rdf:RDF></metadata><defs
     id="defs9915"><clipPath
       clipPathUnits="userSpaceOnUse"
       id="clipPath9927"><path
         d="M 0,600 H 600 V 0 H 0 Z"
         id="path9925"
         inkscape:connector-curvature="0" /></clipPath></defs><sodipodi:namedview
     pagecolor="#ffffff"
     bordercolor="#666666"
     borderopacity="1"
     objecttolerance="10"
     gridtolerance="10"
     guidetolerance="10"
     inkscape:pageopacity="0"
     inkscape:pageshadow="2"
     inkscape:window-width="1920"
     inkscape:window-height="1018"
     id="namedview9913"
     showgrid="false"
     inkscape:zoom="0.97453307"
     inkscape:cx="396.61017"
     inkscape:cy="388.13559"
     inkscape:window-x="-8"
     inkscape:window-y="-8"
     inkscape:window-maximized="1"
     inkscape:current-layer="g9919" />


<!--
<rect stroke="none" fill="#eee" x="8" y="8" height="784" width="784" />
-->

<!-- Bye -->
<g transform="translate(30,50)scale(2.5)">
<g id="svgGroup" stroke-linecap="round" fill-rule="evenodd" font-size="9pt" stroke="#DD0808" stroke-width="0.25mm" fill="#DD0808" style="stroke:#DD0808;stroke-width:0.25mm;fill:#DD0808 "><path d="M 73.5 12.7 L 79.3 6.2 Q 75.6 5.6 71.6 5.25 A 94.033 94.033 0 0 0 64.37 4.906 A 104.284 104.284 0 0 0 63.3 4.9 A 114.947 114.947 0 0 0 52.911 5.383 A 125.733 125.733 0 0 0 52.2 5.45 Q 46.5 6 40.8 7.2 A 53.033 53.033 0 0 0 32.656 9.59 A 38.809 38.809 0 0 0 24.9 13.6 A 43.363 43.363 0 0 0 19.976 17.446 Q 16.987 20.173 15.05 23.15 A 25.254 25.254 0 0 0 13.143 26.614 Q 11.7 29.847 11.7 32.8 Q 11.7 35.9 13.45 38.35 A 8.771 8.771 0 0 0 16.366 40.91 A 12.401 12.401 0 0 0 18.7 41.9 Q 20.9 42.6 23.2 42.6 Q 26.6 42.6 29.2 41.2 A 16.179 16.179 0 0 0 32.587 38.793 A 14.598 14.598 0 0 0 33.6 37.75 A 20.362 20.362 0 0 0 34.95 36.047 Q 35.582 35.15 36.02 34.283 A 11.285 11.285 0 0 0 36.25 33.8 A 15.194 15.194 0 0 0 36.583 33 Q 37.069 31.721 37.002 31.024 A 1.586 1.586 0 0 0 37 31 Q 37 30.414 37.7 30.319 A 2.224 2.224 0 0 1 38 30.3 Q 38.83 30.3 38.971 31.333 A 3.463 3.463 0 0 1 39 31.8 L 39 31.9 A 11.244 11.244 0 0 1 38.164 36.273 A 10.652 10.652 0 0 1 36.5 39 Q 34 42 30.25 43.6 Q 26.5 45.2 22.7 45.2 A 16.002 16.002 0 0 1 19.31 44.823 A 19.518 19.518 0 0 1 17.7 44.4 Q 12.986 42.741 10.405 39.749 A 12.336 12.336 0 0 1 9.7 38.85 Q 7.1 35.2 7.1 30.8 A 16.557 16.557 0 0 1 7.957 25.644 A 22.12 22.12 0 0 1 9.35 22.35 A 26.084 26.084 0 0 1 12.562 17.583 A 34.913 34.913 0 0 1 16 14.05 A 36.282 36.282 0 0 1 21.543 9.991 A 48.668 48.668 0 0 1 26.95 7.2 Q 33.5 4.3 42.1 3.1 Q 46.7 2.4 51.2 2.1 A 134.427 134.427 0 0 1 57.781 1.819 A 120.794 120.794 0 0 1 59.9 1.8 Q 65.7 1.8 71.25 2.35 A 91.217 91.217 0 0 1 78.574 3.366 A 77.957 77.957 0 0 1 81.7 4 A 23.64 23.64 0 0 1 84.008 2.248 A 21.116 21.116 0 0 1 84.55 1.9 Q 86 1 87.2 0.5 A 9.116 9.116 0 0 1 87.677 0.31 Q 87.904 0.228 88.104 0.172 A 4.007 4.007 0 0 1 88.4 0.1 Q 88.9 0 89.2 0 A 1.331 1.331 0 0 1 89.411 0.015 Q 89.782 0.075 89.799 0.371 A 0.505 0.505 0 0 1 89.8 0.4 A 0.58 0.58 0 0 1 89.713 0.676 Q 89.502 1.052 88.783 1.63 A 13.605 13.605 0 0 1 88.3 2 Q 87.3 2.7 86.4 3.55 Q 85.57 4.333 85.336 4.735 A 1.131 1.131 0 0 0 85.3 4.8 A 65.041 65.041 0 0 1 92.681 7.129 Q 96.324 8.537 99.292 10.288 A 34.387 34.387 0 0 1 101.85 11.95 A 19.043 19.043 0 0 1 105.164 14.915 Q 107.287 17.361 107.925 20.193 A 11.365 11.365 0 0 1 108.2 22.7 A 11.498 11.498 0 0 1 107.74 25.825 Q 107.218 27.678 106.1 29.7 Q 103.9 33.4 100 35.65 Q 96.1 37.9 91.7 38.95 A 51.844 51.844 0 0 1 87.194 39.826 A 39.964 39.964 0 0 1 83.5 40.2 Q 86.567 41.129 90.196 42.88 A 67.15 67.15 0 0 1 90.75 43.15 Q 94.7 45.1 98.05 47.9 A 14.567 14.567 0 0 1 100.974 51.157 A 12.546 12.546 0 0 1 102.5 54.5 Q 103.2 56.9 103.2 59.4 Q 103.2 64.7 100.15 69 Q 97.1 73.3 92.05 76.35 A 43.597 43.597 0 0 1 81.094 81.024 A 48.226 48.226 0 0 1 81 81.05 A 44.775 44.775 0 0 1 69.284 82.7 A 42.214 42.214 0 0 1 69.1 82.7 Q 66.9 82.7 64.6 82.4 Q 55 81.2 48.75 79.4 A 89.367 89.367 0 0 1 43.231 77.625 Q 40.664 76.701 38.431 75.69 A 54.1 54.1 0 0 1 37.8 75.4 A 36.237 36.237 0 0 1 26.016 81.401 A 33.463 33.463 0 0 1 16.7 82.7 Q 14.5 82.7 12.2 82.4 A 25.773 25.773 0 0 1 8.672 81.718 Q 6.951 81.248 5.586 80.556 A 10.501 10.501 0 0 1 2.95 78.7 A 11.377 11.377 0 0 1 1.211 76.551 A 7.815 7.815 0 0 1 0 72.4 A 8.22 8.22 0 0 1 1.595 67.569 A 12.262 12.262 0 0 1 3.3 65.65 A 10.816 10.816 0 0 1 7.698 63.232 Q 9.327 62.758 11.27 62.64 A 21.87 21.87 0 0 1 12.6 62.6 A 23.256 23.256 0 0 1 16.979 63.038 Q 19.06 63.438 21.3 64.2 A 24.179 24.179 0 0 1 23.298 65.002 Q 25.194 65.855 27.5 67.2 Q 30.984 69.232 35.498 71.452 A 178.372 178.372 0 0 0 35.8 71.6 A 48.662 48.662 0 0 0 41.156 65.472 A 63.175 63.175 0 0 0 44.95 59.7 A 285.545 285.545 0 0 0 50.656 49.441 A 334.566 334.566 0 0 0 53.25 44.45 Q 57.4 36.3 62.25 28.1 Q 67.1 19.9 73.5 12.7 Z M 119.9 44.2 L 126.1 44.2 A 18.479 18.479 0 0 1 125.526 44.671 Q 125.006 45.081 124.35 45.55 Q 123.485 46.168 122.721 47.296 A 10.92 10.92 0 0 0 122.4 47.8 A 118.699 118.699 0 0 0 119.298 53.413 A 98.021 98.021 0 0 0 117.7 56.65 Q 115.7 60.9 113.4 65.7 A 29.965 29.965 0 0 0 112.552 67.636 Q 112.081 68.831 111.8 69.9 A 18.121 18.121 0 0 0 111.495 71.255 Q 111.3 72.325 111.3 73.2 Q 111.3 76.5 113.5 76.5 A 3.909 3.909 0 0 0 115.098 76.119 Q 116.448 75.512 118.046 73.939 A 24.145 24.145 0 0 0 119.3 72.6 Q 122.1 69.3 124.95 64.75 Q 127.8 60.2 130.45 55.35 Q 133.1 50.5 135.1 46.4 A 3.731 3.731 0 0 1 137.743 44.329 A 5.769 5.769 0 0 1 139 44.2 L 144.5 44.2 Q 141.6 46.2 140.05 49.4 A 69.574 69.574 0 0 0 138.891 51.933 Q 138.354 53.165 137.781 54.582 A 155.004 155.004 0 0 0 136.6 57.6 Q 134.5 63.1 132.65 68.95 Q 130.8 74.8 128.5 80.7 Q 131.204 79.799 134.478 78.092 A 65.418 65.418 0 0 0 135.95 77.3 Q 140.1 75 143 70.7 A 74.635 74.635 0 0 0 145.502 66.751 A 60.137 60.137 0 0 0 146.95 64.15 Q 148.469 61.249 149.183 59.832 A 84.633 84.633 0 0 0 149.3 59.6 Q 149.7 58.6 150.4 58.6 Q 151.1 58.6 151.1 59.5 A 1.97 1.97 0 0 1 151.034 59.991 Q 150.959 60.281 150.8 60.6 A 231.374 231.374 0 0 1 148.927 64.268 Q 147.992 66.058 147.141 67.595 A 111.084 111.084 0 0 1 146.15 69.35 A 34.719 34.719 0 0 1 143.717 73.027 A 27.807 27.807 0 0 1 141.65 75.45 Q 139.2 78 135.7 79.95 Q 133.054 81.424 129.323 82.926 A 96.27 96.27 0 0 1 126.8 83.9 A 137.31 137.31 0 0 1 123.546 89.412 A 164.655 164.655 0 0 1 121.35 92.85 Q 118.3 97.5 114.45 101.55 Q 110.6 105.6 105.95 108.15 A 20.89 20.89 0 0 1 96.049 110.698 A 24.405 24.405 0 0 1 95.7 110.7 A 20.856 20.856 0 0 1 93.149 110.555 Q 90.408 110.216 88.83 109.083 A 5.371 5.371 0 0 1 88.3 108.65 Q 86.1 106.6 86.1 103.8 Q 86.1 102.3 86.5 101.2 A 20.945 20.945 0 0 1 86.789 100.454 Q 87.15 99.569 87.7 98.4 Q 89.1 95.5 91.6 93.4 Q 94.1 91.3 97 90 A 53.089 53.089 0 0 1 103.309 87.585 A 69.075 69.075 0 0 1 108.85 86.1 A 207.852 207.852 0 0 0 118.516 83.681 A 187.281 187.281 0 0 0 121.6 82.8 A 45.839 45.839 0 0 0 123.629 78.817 A 59.727 59.727 0 0 0 125.1 75.25 A 180.091 180.091 0 0 0 127.67 67.966 A 163.18 163.18 0 0 0 128 66.95 A 956.938 956.938 0 0 0 128.619 65.016 Q 129.5 62.25 130.1 60.3 Q 129.275 61.813 128.143 63.774 A 288.876 288.876 0 0 1 127.05 65.65 Q 125.2 68.8 122.9 71.8 A 28.289 28.289 0 0 1 120.045 75.01 A 23.314 23.314 0 0 1 117.95 76.8 A 10.487 10.487 0 0 1 115.497 78.202 A 8.346 8.346 0 0 1 112.4 78.8 A 6.097 6.097 0 0 1 111.512 78.73 Q 111.066 78.664 110.564 78.536 A 13.531 13.531 0 0 1 109.75 78.3 A 5.773 5.773 0 0 1 107.353 76.784 A 7.056 7.056 0 0 1 107.05 76.45 A 4.242 4.242 0 0 1 106.284 75.071 Q 106.068 74.446 105.974 73.679 A 10.473 10.473 0 0 1 105.9 72.4 A 10.947 10.947 0 0 1 107.073 67.503 A 12.71 12.71 0 0 1 107.15 67.35 Q 108.4 64.9 109.5 62.6 A 1.048 1.048 0 0 1 109.208 62.556 Q 109.036 62.506 108.85 62.4 Q 108.5 62.2 108.5 61.8 A 1.703 1.703 0 0 1 108.617 61.188 A 2.091 2.091 0 0 1 108.7 61 Q 109.1 60.2 109.6 59.3 Q 110.1 58.4 110.5 57.4 Q 112 54.3 113.5 51.45 A 345.039 345.039 0 0 0 114.736 49.081 Q 115.295 47.998 115.783 47.032 A 192.341 192.341 0 0 0 116.1 46.4 Q 117.031 44.539 119.106 44.252 A 5.802 5.802 0 0 1 119.9 44.2 Z M 67.7 79.8 A 35.07 35.07 0 0 0 74.501 79.165 A 28.893 28.893 0 0 0 79 77.9 Q 84.1 76 87.85 72.9 A 25.292 25.292 0 0 0 91.682 68.999 A 21.221 21.221 0 0 0 93.65 66 A 17.989 17.989 0 0 0 95.155 62.342 A 14.115 14.115 0 0 0 95.7 58.5 A 12.012 12.012 0 0 0 94.418 53.153 A 15.085 15.085 0 0 0 93.6 51.7 A 13.232 13.232 0 0 0 90.691 48.504 Q 89.109 47.231 87 46.2 Q 83.1 44.3 78.95 43.05 Q 76.097 42.191 73.787 41.473 A 384.136 384.136 0 0 1 71.8 40.85 A 19.161 19.161 0 0 1 70.626 40.44 Q 68.929 39.777 68.419 39.092 A 1.285 1.285 0 0 1 68.3 38.9 Q 68.3 37.7 69.35 37.25 A 4.886 4.886 0 0 1 70.269 36.967 Q 70.716 36.873 71.24 36.832 A 10.998 10.998 0 0 1 72.1 36.8 A 33.126 33.126 0 0 1 73.712 36.842 Q 74.611 36.886 75.631 36.976 A 66.998 66.998 0 0 1 76.9 37.1 Q 79.7 37.4 82.8 37.4 A 15.421 15.421 0 0 0 87.271 36.715 A 19.205 19.205 0 0 0 89.35 35.95 Q 92.7 34.5 95.5 32.05 A 22.994 22.994 0 0 0 99.094 28.116 A 20.621 20.621 0 0 0 100.05 26.65 A 12.672 12.672 0 0 0 101.462 23.296 A 10.93 10.93 0 0 0 101.8 20.6 A 8.727 8.727 0 0 0 100.912 16.819 A 11.786 11.786 0 0 0 99.9 15.1 A 10.831 10.831 0 0 0 97.875 12.965 Q 96.161 11.564 93.6 10.4 Q 89.2 8.4 84.1 7.2 A 172.149 172.149 0 0 0 78.162 15.975 A 215.582 215.582 0 0 0 74.1 22.65 Q 69.1 31.2 64.1 39.95 A 333.526 333.526 0 0 1 56.544 52.541 A 296.467 296.467 0 0 1 54 56.5 A 124.118 124.118 0 0 1 48.902 63.747 A 90.895 90.895 0 0 1 43.8 69.9 A 71.212 71.212 0 0 1 43.231 70.509 Q 42.614 71.163 42.162 71.601 A 16.617 16.617 0 0 1 41.9 71.85 A 224.271 224.271 0 0 1 41.519 72.203 Q 41.093 72.596 40.535 73.109 A 742.634 742.634 0 0 1 40 73.6 Q 44.7 75.5 50.7 77.2 Q 56.7 78.9 64.4 79.6 A 25.236 25.236 0 0 0 66.023 79.748 A 27.821 27.821 0 0 0 66.05 79.75 A 28.445 28.445 0 0 0 67.499 79.799 A 25.903 25.903 0 0 0 67.7 79.8 Z M 156.4 79.2 Q 152.7 79.2 149.75 76.8 A 7.63 7.63 0 0 1 147.198 72.761 Q 146.85 71.482 146.806 69.945 A 15.717 15.717 0 0 1 146.8 69.5 Q 146.8 65.132 148.873 60.151 A 35.085 35.085 0 0 1 149 59.85 Q 151.2 54.7 154.6 50.8 A 27.275 27.275 0 0 1 160.542 45.551 A 25.658 25.658 0 0 1 161.1 45.2 Q 164.067 43.387 166.763 43.068 A 9.679 9.679 0 0 1 167.9 43 A 6.758 6.758 0 0 1 169.98 43.309 A 5.814 5.814 0 0 1 171.7 44.2 A 4.229 4.229 0 0 1 173.366 47.247 A 6.17 6.17 0 0 1 173.4 47.9 A 7.802 7.802 0 0 1 173.036 50.183 Q 172.744 51.139 172.217 52.157 A 16.581 16.581 0 0 1 171.5 53.4 A 18.524 18.524 0 0 1 168.943 56.562 A 25.416 25.416 0 0 1 166.1 59 A 15.287 15.287 0 0 1 164.663 59.927 Q 163.612 60.53 162.3 61.1 Q 160 62.1 157.7 62.75 Q 155.413 63.396 153.917 63.4 A 6.934 6.934 0 0 1 153.9 63.4 Q 153.4 64.6 152.95 66.6 Q 152.5 68.6 152.5 70.7 A 10.768 10.768 0 0 0 152.816 73.354 A 9.132 9.132 0 0 0 153.5 75.2 A 3.427 3.427 0 0 0 155.983 77.081 A 5.826 5.826 0 0 0 157.2 77.2 Q 160.5 77.2 163.2 75.3 A 20.669 20.669 0 0 0 167.567 71.119 A 23.539 23.539 0 0 0 168 70.55 Q 170.1 67.7 171.55 64.8 Q 172.983 61.935 173.878 59.948 A 73.232 73.232 0 0 0 173.9 59.9 A 3.877 3.877 0 0 1 174.203 59.321 Q 174.734 58.5 175.5 58.5 A 0.72 0.72 0 0 1 175.698 58.525 Q 176 58.611 176 59 A 1.396 1.396 0 0 1 175.965 59.299 Q 175.897 59.606 175.7 60 Q 174.3 63 172.7 66.35 Q 171.1 69.7 168.9 72.65 Q 166.7 75.6 163.65 77.4 A 12.763 12.763 0 0 1 159.27 78.968 A 17.035 17.035 0 0 1 156.4 79.2 Z M 93.3 108.7 A 12.103 12.103 0 0 0 97.276 108 A 16.755 16.755 0 0 0 100.1 106.7 A 35.685 35.685 0 0 0 105.028 103.283 A 42.268 42.268 0 0 0 106.9 101.65 A 82.362 82.362 0 0 0 112.077 96.432 A 74.024 74.024 0 0 0 112.95 95.45 A 98.658 98.658 0 0 0 114.865 93.193 Q 115.785 92.072 116.545 91.066 A 47.112 47.112 0 0 0 117.4 89.9 A 12.462 12.462 0 0 0 117.789 89.319 Q 118.125 88.788 118.5 88.1 A 60.552 60.552 0 0 1 119.4 86.506 A 54.344 54.344 0 0 1 119.7 86 Q 114.8 87.3 108.95 88.85 Q 103.717 90.237 99.724 91.903 A 48.734 48.734 0 0 0 98.8 92.3 A 19.481 19.481 0 0 0 94.395 94.815 A 16.173 16.173 0 0 0 91.25 98 Q 89.557 100.277 88.907 102.252 A 7.502 7.502 0 0 0 88.5 104.6 Q 88.5 106.4 89.65 107.55 A 3.465 3.465 0 0 0 90.915 108.336 Q 91.465 108.541 92.15 108.63 A 8.89 8.89 0 0 0 93.3 108.7 Z M 22.165 79.045 A 23.239 23.239 0 0 0 24.95 78.25 Q 29.6 76.6 33.6 73.6 Q 30.1 71.9 26.45 70.05 Q 22.8 68.2 18.7 66.7 A 20.284 20.284 0 0 0 16.258 66.016 Q 14.75 65.7 13.4 65.7 A 11.219 11.219 0 0 0 11.263 65.89 Q 10.025 66.131 9.067 66.676 A 5.666 5.666 0 0 0 7.8 67.65 A 6.966 6.966 0 0 0 6.472 69.522 A 5.94 5.94 0 0 0 5.9 72.1 A 6.373 6.373 0 0 0 6.803 75.329 A 9.449 9.449 0 0 0 8.1 77.05 A 7.377 7.377 0 0 0 11.032 78.931 Q 12.62 79.506 14.7 79.6 Q 18.671 79.813 22.165 79.045 Z M 154.6 61.6 Q 156 61.6 159.3 60.55 Q 162.6 59.5 165.3 57.2 A 18.501 18.501 0 0 0 167.964 54.31 A 15.566 15.566 0 0 0 169.3 52.15 A 17.813 17.813 0 0 0 170.035 50.524 Q 170.7 48.81 170.7 47.5 A 4.456 4.456 0 0 0 170.636 46.711 Q 170.381 45.3 169.1 45.3 Q 167.9 45.3 165.8 46.9 A 17.151 17.151 0 0 0 164.465 48.044 Q 163.175 49.257 161.595 51.107 A 69.25 69.25 0 0 0 160.6 52.3 A 50.388 50.388 0 0 0 157.428 56.806 A 55.924 55.924 0 0 0 157 57.5 Q 155.3 60.3 154.6 61.6 Z" vector-effect="non-scaling-stroke"/></g>
</g>


<!-- bird -->
<g transform="translate(20,550)scale(2.5)">
<g id="svgGroup" stroke-linecap="round" fill-rule="evenodd" font-size="9pt" stroke="#DD0808" stroke-width="0.25mm" fill="#DD0808" style="stroke:#DD0808;stroke-width:0.25mm;fill:#DD0808"><path d="M 35.8 0.8 L 36.3 0.8 A 6.492 6.492 0 0 1 37.135 0.857 Q 37.703 0.931 38.35 1.1 A 5.607 5.607 0 0 0 39.191 1.255 Q 39.875 1.325 40.5 1.2 Q 39.2 2.6 36.55 6.15 A 200.003 200.003 0 0 0 34.116 9.486 Q 32.888 11.205 31.552 13.138 A 345.695 345.695 0 0 0 30.65 14.45 A 254.181 254.181 0 0 0 25.775 21.856 A 282.321 282.321 0 0 0 24.15 24.45 Q 20.9 29.7 18.4 34.7 A 80.319 80.319 0 0 0 14.621 43.598 A 89.501 89.501 0 0 0 14.15 44.95 A 41.732 41.732 0 0 0 13.023 48.848 Q 12.571 50.779 12.402 52.504 A 20.442 20.442 0 0 0 12.3 54.5 Q 12.3 56.9 13.1 58.5 A 3.604 3.604 0 0 0 15.398 60.398 A 5.028 5.028 0 0 0 15.8 60.5 A 3.044 3.044 0 0 0 16.452 60.569 Q 19.532 60.569 24.4 54.8 Q 26.484 52.32 28.567 48.904 A 65.875 65.875 0 0 0 28.6 48.85 A 52.457 52.457 0 0 0 30.371 45.715 Q 31.151 44.209 31.737 42.8 A 31.966 31.966 0 0 0 31.9 42.4 A 24.386 24.386 0 0 0 32.999 39.273 Q 33.6 37.063 33.6 35.1 A 8.12 8.12 0 0 0 33.439 33.432 Q 33.151 32.061 32.35 31.1 A 3.275 3.275 0 0 0 30.736 30.064 Q 29.684 29.747 28.2 29.9 L 27.8 29.9 A 4.84 4.84 0 0 1 27.188 29.865 Q 26.546 29.783 26.251 29.507 A 0.792 0.792 0 0 1 26 28.9 Q 26 28.519 26.5 28.138 A 2.73 2.73 0 0 1 26.55 28.1 A 1.868 1.868 0 0 1 27.106 27.83 Q 27.53 27.7 28.1 27.7 A 4.142 4.142 0 0 1 28.453 27.716 A 5.3 5.3 0 0 1 28.75 27.75 A 6.733 6.733 0 0 1 29.16 27.822 A 8.476 8.476 0 0 1 29.5 27.9 Q 33.055 28.453 35.018 30.41 A 7.248 7.248 0 0 1 35.95 31.55 A 11.823 11.823 0 0 1 37.888 37.697 A 14.426 14.426 0 0 1 37.9 38.3 Q 37.9 39.1 37.8 40.05 Q 37.7 41 37.5 42.1 A 27.106 27.106 0 0 1 35.914 47.284 A 34.006 34.006 0 0 1 34.4 50.45 Q 32.1 54.7 28.75 57.9 A 18.122 18.122 0 0 1 24.329 61.05 A 16.107 16.107 0 0 1 21.3 62.2 Q 19.6 62.6 18.15 62.8 Q 16.7 63 15.5 63 A 13.405 13.405 0 0 1 13.141 62.806 Q 10.577 62.347 9.1 60.8 A 7.52 7.52 0 0 1 7.019 55.909 A 9.908 9.908 0 0 1 7 55.3 Q 7 53.7 7.4 52.2 Q 7.916 50.223 8.837 47.841 A 59.09 59.09 0 0 1 9.15 47.05 Q 10.3 44.2 11.8 41.2 A 243.654 243.654 0 0 1 9.266 45.998 Q 7.994 48.339 6.822 50.352 A 119.791 119.791 0 0 1 5.45 52.65 Q 2.758 57.042 1.271 58.535 A 6.575 6.575 0 0 1 1.1 58.7 Q 0.899 58.901 0.699 58.967 A 0.629 0.629 0 0 1 0.5 59 A 0.72 0.72 0 0 1 0.302 58.975 Q 0 58.889 0 58.5 A 1.159 1.159 0 0 1 0.106 58.025 Q 0.178 57.863 0.3 57.7 Q 2.4 54.9 5.15 50 Q 7.9 45.1 11 39.05 Q 14.1 33 17.3 26.8 Q 20.5 20.6 23.55 15.1 Q 25.885 10.889 27.898 7.675 A 99.242 99.242 0 0 1 29.1 5.8 Q 30.858 3.164 32.425 2.005 A 6.933 6.933 0 0 1 32.5 1.95 A 6.513 6.513 0 0 1 33.958 1.149 A 5.089 5.089 0 0 1 35.8 0.8 Z M 105.225 61.349 A 4.866 4.866 0 0 0 108.8 62.9 A 8.373 8.373 0 0 0 111.787 62.355 A 9.855 9.855 0 0 0 114.4 60.85 A 20.378 20.378 0 0 0 116.355 59.088 A 24.434 24.434 0 0 0 119.1 55.7 A 60.175 60.175 0 0 0 119.868 54.538 A 53.462 53.462 0 0 0 122.75 49.5 A 174.476 174.476 0 0 0 122.903 49.194 Q 124.345 46.295 125.2 44.3 A 1.639 1.639 0 0 0 125.276 44.176 Q 125.331 44.074 125.362 43.978 A 0.745 0.745 0 0 0 125.4 43.75 L 125.4 43.4 A 2.078 2.078 0 0 0 125.383 43.12 Q 125.298 42.5 124.8 42.5 A 0.855 0.855 0 0 0 124.532 42.543 Q 124.001 42.717 123.6 43.6 Q 122.9 45.2 121.5 47.95 A 63.269 63.269 0 0 1 120.775 49.331 A 72.231 72.231 0 0 1 118.3 53.55 A 32.133 32.133 0 0 1 116.463 56.175 A 23.738 23.738 0 0 1 114.55 58.35 Q 112.6 60.3 110.7 60.3 A 3.257 3.257 0 0 1 109.967 60.223 A 1.951 1.951 0 0 1 108.7 59.35 A 3.746 3.746 0 0 1 108.232 58.242 A 4.74 4.74 0 0 1 108.1 57.1 A 9.817 9.817 0 0 1 108.141 56.22 Q 108.21 55.458 108.393 54.596 A 20.637 20.637 0 0 1 108.85 52.85 A 73.739 73.739 0 0 1 109.108 52.024 Q 109.672 50.256 110 49.6 A 90.433 90.433 0 0 1 110.968 47.343 Q 112.134 44.716 113.75 41.45 Q 116.1 36.7 118.85 31.35 Q 121.6 26 124.45 20.75 Q 127.3 15.5 129.8 11.1 A 252.414 252.414 0 0 1 129.921 10.888 Q 132.345 6.631 134.15 3.85 Q 136 1 136.6 0.4 A 9.735 9.735 0 0 1 135.853 0.429 A 10.435 10.435 0 0 1 133.95 0.25 A 18.654 18.654 0 0 0 133.866 0.235 Q 132.566 0 131.5 0 Q 129.6 0 128.25 0.95 A 3.965 3.965 0 0 0 127.553 1.599 Q 126.854 2.404 126.118 3.854 A 26.361 26.361 0 0 0 125.4 5.4 Q 124.7 6.9 123.4 9.75 Q 122.1 12.6 120.4 16 Q 118.7 19.4 117 22.85 Q 115.3 26.3 113.8 29.1 Q 110.6 27.2 107 27.2 A 15.324 15.324 0 0 0 103.643 27.574 A 17.753 17.753 0 0 0 99.1 29.3 Q 95.2 31.4 92.2 34.9 A 32.834 32.834 0 0 0 90.134 37.656 A 44.681 44.681 0 0 0 88.15 40.9 Q 86.2 44.4 84.95 48.1 A 30.038 30.038 0 0 0 84.799 48.56 Q 83.7 51.994 83.7 54.9 A 11.547 11.547 0 0 0 83.89 57.043 A 8.42 8.42 0 0 0 84.85 59.7 A 5.568 5.568 0 0 0 86.926 61.751 A 8.068 8.068 0 0 0 88.7 62.5 A 9.143 9.143 0 0 0 89.444 62.671 A 7.458 7.458 0 0 0 90.8 62.8 A 7.92 7.92 0 0 0 93.191 62.44 A 8.422 8.422 0 0 0 96.05 60.85 A 21.781 21.781 0 0 0 96.342 60.604 A 23.277 23.277 0 0 0 100.25 56.25 A 201.128 201.128 0 0 0 100.257 56.24 Q 101.178 54.92 101.988 53.712 A 117.119 117.119 0 0 0 103.5 51.4 A 11.907 11.907 0 0 0 103.378 51.835 A 10.367 10.367 0 0 0 103.1 53.35 Q 103 54.3 103 55.2 A 11.445 11.445 0 0 0 103.066 56.451 A 8.911 8.911 0 0 0 103.4 58.1 A 13.421 13.421 0 0 0 103.61 58.728 Q 103.927 59.603 104.3 60.2 A 7.761 7.761 0 0 0 105.225 61.349 Z M 66.5 33.5 L 65.3 36.8 Q 64.458 39.25 63.117 42.345 A 125.811 125.811 0 0 1 62.25 44.3 Q 60.3 48.6 57.95 52.6 A 38.496 38.496 0 0 1 56.016 55.586 Q 54.584 57.575 53.1 59 A 0.675 0.675 0 0 1 52.619 59.2 A 0.886 0.886 0 0 1 52.6 59.2 A 0.489 0.489 0 0 1 52.177 58.977 Q 52.119 58.894 52.077 58.78 A 1.291 1.291 0 0 1 52.05 58.7 Q 51.909 58.23 52.43 57.584 A 3.632 3.632 0 0 1 52.5 57.5 A 69.686 69.686 0 0 0 58.309 48.291 A 79.466 79.466 0 0 0 59.5 45.95 Q 62.6 39.6 64.75 33 Q 66.9 26.4 67.9 20.8 A 6.594 6.594 0 0 1 68.136 19.883 Q 68.293 19.424 68.509 19.066 A 2.863 2.863 0 0 1 69 18.45 A 3.165 3.165 0 0 1 69.608 17.997 A 2.196 2.196 0 0 1 70.7 17.7 A 2.749 2.749 0 0 1 72.247 18.188 Q 72.632 18.445 72.996 18.836 A 5.492 5.492 0 0 1 73.1 18.95 Q 74.028 20.005 74.173 21.807 A 8.645 8.645 0 0 1 74.2 22.5 Q 74.2 22.9 74.15 23.4 Q 74.1 23.9 74 24.4 A 6.39 6.39 0 0 1 73.02 26.745 Q 72.473 27.57 71.65 28.35 Q 70.043 29.875 68.945 30.754 A 17.702 17.702 0 0 1 68.5 31.1 Q 69.5 31.2 70.6 31.25 Q 71.7 31.3 73 31.3 Q 77.7 31.3 82.3 30.7 A 6.806 6.806 0 0 1 82.388 30.981 Q 82.467 31.26 82.49 31.454 A 1.235 1.235 0 0 1 82.5 31.6 Q 82.5 32.873 81.781 34.818 A 19.73 19.73 0 0 1 81.75 34.9 Q 81 36.9 80.2 38.5 A 23.217 23.217 0 0 1 79.969 39.002 Q 79.624 39.728 79.005 40.953 A 220.39 220.39 0 0 1 78.6 41.75 Q 77.4 44.1 76 47.05 A 53.261 53.261 0 0 0 74.153 51.419 A 47.049 47.049 0 0 0 73.65 52.85 A 23.491 23.491 0 0 0 73.109 54.709 Q 72.885 55.627 72.784 56.435 A 10.187 10.187 0 0 0 72.7 57.7 A 4.956 4.956 0 0 0 72.783 58.649 Q 73.106 60.3 74.7 60.3 A 2.821 2.821 0 0 0 75.867 60.026 Q 76.737 59.631 77.695 58.669 A 11.8 11.8 0 0 0 78 58.35 A 25.837 25.837 0 0 0 79.732 56.25 Q 80.533 55.173 81.324 53.914 A 42.63 42.63 0 0 0 81.55 53.55 A 101.378 101.378 0 0 0 84.006 49.331 A 90.843 90.843 0 0 0 84.75 47.95 Q 86.2 45.2 87 43.6 Q 87.4 42.6 88.1 42.6 Q 88.475 42.6 88.498 43.215 A 2.227 2.227 0 0 1 88.5 43.3 A 1.59 1.59 0 0 1 88.477 43.553 Q 88.417 43.922 88.2 44.5 A 152.254 152.254 0 0 1 87.161 46.627 Q 86.444 48.069 85.6 49.7 Q 84.1 52.6 82.25 55.4 A 29.964 29.964 0 0 1 79.82 58.607 A 24.994 24.994 0 0 1 78.25 60.25 A 11.569 11.569 0 0 1 76.085 61.896 A 9.205 9.205 0 0 1 73.6 62.9 A 1.29 1.29 0 0 1 73.419 62.944 Q 73.115 62.997 72.554 63 A 12.398 12.398 0 0 1 72.5 63 A 5.087 5.087 0 0 1 70.363 62.51 Q 69.661 62.188 68.96 61.655 A 9.612 9.612 0 0 1 68.7 61.45 A 4.745 4.745 0 0 1 67.232 59.293 Q 66.948 58.489 66.851 57.494 A 11.246 11.246 0 0 1 66.8 56.4 A 13.649 13.649 0 0 1 67.031 53.98 Q 67.247 52.786 67.663 51.469 A 27.103 27.103 0 0 1 68.1 50.2 Q 69.3 46.8 71.35 43.6 A 72.997 72.997 0 0 0 72.519 41.717 Q 73.559 39.98 74.163 38.696 A 18.671 18.671 0 0 0 74.3 38.4 Q 74.6 37.6 74.6 37 Q 74.6 35.305 72.606 34.497 A 6.297 6.297 0 0 0 72.35 34.4 A 13.098 13.098 0 0 0 70.473 33.898 Q 69.504 33.709 68.368 33.607 A 30.147 30.147 0 0 0 66.5 33.5 Z M 40.6 49.9 L 47.3 32.8 Q 47.6 32 47.6 31.4 A 3.378 3.378 0 0 0 47.463 30.422 A 2.88 2.88 0 0 0 47.1 29.65 L 46.4 28.6 L 51.9 28.4 A 8.467 8.467 0 0 1 52.166 28.386 Q 53.416 28.342 54.01 28.723 A 1.366 1.366 0 0 1 54.05 28.75 Q 54.495 29.058 54.636 29.437 A 1.037 1.037 0 0 1 54.7 29.8 Q 54.7 30.4 54 32 L 45.7 51.5 L 45.15 52.75 Q 44.682 53.814 44.54 54.262 A 2.347 2.347 0 0 0 44.5 54.4 A 192.59 192.59 0 0 1 44.395 54.924 Q 44.189 55.936 44.106 56.275 A 5.285 5.285 0 0 1 44.1 56.3 A 11.198 11.198 0 0 0 44.066 56.439 Q 44 56.719 44 56.8 L 44 57.6 A 4.319 4.319 0 0 0 44.124 58.661 A 3.311 3.311 0 0 0 44.65 59.8 A 1.987 1.987 0 0 0 45.609 60.502 Q 46.15 60.7 46.9 60.7 A 4.066 4.066 0 0 0 47.762 60.601 Q 48.178 60.511 48.636 60.337 A 8.65 8.65 0 0 0 49.2 60.1 Q 50.421 59.536 51.025 58.973 A 3.068 3.068 0 0 0 51.1 58.9 A 26.996 26.996 0 0 0 53.201 56.413 Q 54.186 55.103 55.163 53.532 A 51.31 51.31 0 0 0 56.05 52.05 Q 58.5 47.8 60.6 43.6 Q 61 42.6 61.6 42.6 Q 62.1 42.6 62.1 43.3 A 1.59 1.59 0 0 1 62.077 43.553 Q 62.017 43.922 61.8 44.5 A 599.041 599.041 0 0 1 61.269 45.613 Q 60.438 47.347 59.336 49.626 A 1624.635 1624.635 0 0 1 59.3 49.7 A 49.722 49.722 0 0 1 56.254 55.087 A 55.017 55.017 0 0 1 55.75 55.85 A 26.718 26.718 0 0 1 53.473 58.794 A 20.907 20.907 0 0 1 51.3 60.9 A 9.019 9.019 0 0 1 49.003 62.319 A 7.466 7.466 0 0 1 46.1 62.9 A 9.94 9.94 0 0 1 44.205 62.732 Q 43.162 62.529 42.371 62.081 A 4.429 4.429 0 0 1 40.9 60.75 Q 39.4 58.6 39.4 55.8 A 13.74 13.74 0 0 1 39.708 52.944 A 15.172 15.172 0 0 1 39.75 52.75 A 22.142 22.142 0 0 1 40.246 50.91 A 18.168 18.168 0 0 1 40.6 49.9 Z M 138.6 52.2 L 137.6 52 L 137.7 51.4 L 163.3 2.7 A 3.515 3.515 0 0 1 163.946 1.782 A 2.847 2.847 0 0 1 165.4 1 A 13.574 13.574 0 0 1 167.42 0.729 A 16.11 16.11 0 0 1 168.4 0.7 L 171.6 0.7 L 172.1 1 L 172.3 1.5 Q 172.101 2.195 170.373 4.914 A 101.127 101.127 0 0 1 170.35 4.95 Q 168.687 7.563 166.122 11.44 A 801.119 801.119 0 0 1 165.85 11.85 Q 163.1 16 159.8 20.95 Q 156.5 25.9 153.1 30.85 Q 149.7 35.8 146.7 40.2 A 1838.285 1838.285 0 0 0 144.57 43.331 Q 143.732 44.566 142.977 45.683 A 973.044 973.044 0 0 0 141.55 47.8 A 4552.75 4552.75 0 0 0 140.616 49.19 Q 139.542 50.791 138.931 51.705 A 454.432 454.432 0 0 0 138.6 52.2 Z M 91.5 59.9 A 3.351 3.351 0 0 0 92.494 59.733 Q 93.391 59.453 94.501 58.703 A 14.756 14.756 0 0 0 95 58.35 A 13.52 13.52 0 0 0 96.479 57.066 Q 97.202 56.349 97.957 55.432 A 34.333 34.333 0 0 0 99.5 53.4 A 122.269 122.269 0 0 0 101.713 50.119 Q 102.681 48.634 103.728 46.955 A 246.59 246.59 0 0 0 105.9 43.4 A 239.728 239.728 0 0 0 111.244 34.006 A 269.078 269.078 0 0 0 113 30.7 Q 111.7 29.5 110 29.5 Q 107.94 29.5 105.529 30.907 A 18.255 18.255 0 0 0 103.75 32.1 A 34.674 34.674 0 0 0 99.932 35.468 A 45.321 45.321 0 0 0 97.05 38.7 A 54.039 54.039 0 0 0 93.078 44.247 A 46.463 46.463 0 0 0 91.6 46.8 Q 90.317 49.195 89.656 51.225 A 17.869 17.869 0 0 0 89.45 51.9 Q 88.8 54.2 88.8 55.9 A 8.769 8.769 0 0 0 88.903 57.31 Q 89.31 59.797 91.329 59.896 A 3.475 3.475 0 0 0 91.5 59.9 Z M 132.44 64.279 A 4.359 4.359 0 0 0 133.5 64.4 Q 135.4 64.4 136.95 62.9 A 6.138 6.138 0 0 0 137.477 62.323 A 4.417 4.417 0 0 0 138.5 59.5 A 4.279 4.279 0 0 0 138.491 59.224 A 3.169 3.169 0 0 0 137.5 57.05 A 3.321 3.321 0 0 0 136.08 56.251 A 4.391 4.391 0 0 0 134.9 56.1 A 4.715 4.715 0 0 0 133.132 56.448 A 6.086 6.086 0 0 0 131.8 57.2 A 5.064 5.064 0 0 0 131.657 57.309 A 3.99 3.99 0 0 0 130.1 60.1 Q 130.062 60.424 130.062 60.733 A 4.23 4.23 0 0 0 130.75 63.1 A 2.734 2.734 0 0 0 132.44 64.279 Z M 54.2 22.3 Q 52.7 22.3 51.75 21.25 Q 50.8 20.2 50.8 18.7 A 4.308 4.308 0 0 1 52.075 15.622 A 5.811 5.811 0 0 1 52.3 15.4 A 5.609 5.609 0 0 1 53.594 14.481 A 4.392 4.392 0 0 1 55.6 14 A 4.17 4.17 0 0 1 56.801 14.165 A 3.28 3.28 0 0 1 58.2 15 A 3.27 3.27 0 0 1 59.2 17.356 A 3.89 3.89 0 0 1 59.2 17.4 A 4.532 4.532 0 0 1 58.132 20.322 A 6.167 6.167 0 0 1 57.7 20.8 A 5.227 5.227 0 0 1 56.157 21.889 A 4.698 4.698 0 0 1 54.2 22.3 Z" vector-effect="non-scaling-stroke"/></g>
</g>


<!-- splatter -->
<g transform="translate(130,330)scale(0.3)">
<path stroke="#DD0808" fill="#DD0808" d="M642.76 7.86c27.52-13.87 20.69-7.64 36.4 5.24 21.39 17.53-47.4 113.7-85.56 101.27 3.61-48.28 34.67-99.21 49.16-106.51zm-254 8.19c10.22 28.98 21.56 101.56-24.58 98.32-17.04-25.7-34.93-106.54 24.58-98.32zm-85.34 112.66c-9.34 33.24-52.36 26.41-65.55 0-28.78-57.62 82.51-60.35 65.55 0zm216.43 395.33c-24.02-.56-30.43-18.73-40.96-32.77-15.6 3.52-20.58 17.65-40.97 16.38-21.54-2.43-6.45 31.79-32.77 24.58 8.41-27.53-25.48-12.75-40.97-16.39-12.18 6.94-11.86 26.38-16.39 40.97-14.61-19.4 16.19-66.48-40.97-57.36-1.64-31.13-34.45-31.09-32.77-65.55-50.24 12.57-80.85 44.78-131.09 57.36 26.67-44.34 87.72-54.3 131.09-81.93-5.64-32.95 7.85-46.77 8.19-73.74-16.7-18.8-68.04-2.96-98.32-8.19 21.31-16.93 59.1-17.37 98.32-16.39 23.04-10.23 27.08-33.58 16.39-57.35 10.48.45 11.35 10.5 24.58 8.19 2.72-32.76-14.61-45.48-8.19-81.93 21.86 5.45 30 24.62 40.97 40.97 10.3-3.36 16.75-10.57 16.39-24.58 6.38 1.81 9.53 6.86 8.19 16.39 84.08-14.18 16.6-172.28 114.7-131.09 16.98 7.13 16.28 16.49 16.39 32.77-3.44 15.66-2.96 35.26-24.58 32.77-7.12 8.61-11.86 18.68-24.58 32.78 51.4 11.42 94.8 30.83 106.52 81.93 32.95 5.64 46.77-7.85 73.74-8.19-13.63 21.88-56.54 14.47-73.74 32.77-1.53 68.44 5.81 95.4-32.78 122.9 1.4 12.26-2.92 30.24 8.2 32.77-11.42 13.16-40.43 8.73-49.16 24.58 8.42 18.89 28.21 26.42 24.58 57.35z"/><path fill="#DD0808" d="M560.83 147.15c30.29 24.84-24.88 27.6 0 0zm188.44 73.73c17.29 2.51 8.66 15.92 0 16.39s-23.26 1.41-24.58-8.2c1.38-9.54 7.29-10.7 24.58-8.19zm-40.96 16.39c1.56-9.3 8.22-4.55 8.19 0-1.56 9.3-8.22 4.55-8.19 0zM183.93 327.4c.83 9.9-11.91 5.04 0 0zm-98.32 8.19c3.01 24.86-26.69 17.01-40.97 24.58-1.19-23.03 20.07-23.63 40.97-24.58zm557.15 24.58c.22-9.09 45.96-3.2 65.54-8.19-2.61 21.73 46.9 10.46 32.77 24.58-14.8 15.48-98.53-7.3-98.31-16.39zM199.9 398.46c-12.07 32.98-66.24 39.39-68.1-9.29-1.85-48.68 80.18-23.69 68.1 9.29zm442.86 60.03c17.85 3.16 22.15 16.09 24.58 32.77 31.99-16.23 70.1 20.02 65.54 40.97s-37.74 31.99-49.16 8.19c3.7 27.47-35.02 31.94-49.16 32.77-6.72.39-26.33-3.59-24.58-24.58-24.31-3-42.55.22-49.16-32.77s34.36-65.77 81.94-57.35zm-499.8 32.78c.83 9.9-11.91 5.03 0 0zm155.68 16.38c.46-5 1.23-9.7 8.19-8.19-.46 5-1.22 9.7-8.19 8.19zm-8.2 8.2c.46-5 1.23-9.7 8.19-8.19-.46 4.99-1.22 9.7-8.19 8.19zM102 540.43c-3.2 13.44-27.53 6.36-32.77-8.19-5.24-14.56 35.97-5.25 32.77 8.19zm188.44-24.58c.83 9.9-11.91 5.04 0 0zm229.41 8.19c9.9-.83 5.04 11.91 0 0zM3.68 573.2c-3.2-5.69-6.36-5.93 0-16.39s67.65-29.84 57.35 16.39c-5.49 29.78-54.16 5.68-57.35 0zm401.47-16.39c2.82-9.89 21.8-6.63 24.58 0 7.43 17.72-30 18.99-24.58 0zm262.19 16.39c11.99 7.12 27.77 24.11 24.58 32.77s-21.39 16.6-32.77 0c-11.39-16.61 5.62-21.69 8.19-32.77zm81.93 49.16c5 5.24 4.31 7.29 0 8.19-9.64-1.29-23.26 1.41-24.58-8.19 11.69-3.19 19.59-5.24 24.58 0zM347.8 646.94c14.55 8.66 18.9 32.99 0 32.77s-14.55-41.43 0-32.77zm229.41 0c12.93 14.38 37.62 17 40.97 40.97-30.24 2.93-34.24-20.38-40.97-40.97zm-401.47 32.77c-.83-9.9 11.91-5.03 0 0zm0 0c-1 20.85-19.33 40.51-32.77 32.77-13.44-7.73 7.12-36.57 32.77-32.77zm-49.16 73.74c-7.3 8.65-15.92 8.41-24.58 0s-11.98-46.72 16.39-40.97c20.85.83 15.49 32.32 8.2 40.97z"/>
</g>


<!-- feather and bird starts here -->
<g transform="translate(400,200)scale(0.5)">
<g
     id="g9919"
     inkscape:groupmode="layer"
     inkscape:label="feather-pen-publicdomainvectors.org"
     transform="matrix(1.3333333,0,0,-1.3333333,0,800)">
<g
       id="g9921"><g
         id="g9923"
         clip-path="url(#clipPath9927)"><path
           d="m 474.662,579.158 c -2.57,-0.915 -5.258,-1.873 -8.062,-2.873 -2.793,-1.022 -5.729,-2.011 -8.723,-3.176 -2.981,-1.196 -6.068,-2.435 -9.26,-3.716 -6.426,-2.456 -13.06,-5.548 -20.117,-8.661 -3.553,-1.507 -7.055,-3.348 -10.705,-5.094 -3.619,-1.816 -7.41,-3.504 -11.115,-5.542 -1.877,-0.964 -3.764,-1.954 -5.664,-2.966 l -5.012,22.907 c 3.56,1.168 7.127,2.272 10.709,3.301 0.549,-0.48 1.215,-1.116 1.682,-1.564 2.566,-2.454 4.99,-4.773 8.244,-4.773 0.525,0 1.049,0.065 1.552,0.194 4.291,1.098 5.438,5.423 6.364,8.899 0.138,0.536 0.34,1.285 0.529,1.896 12.52,2.689 25.523,3.997 39.682,3.997 5.578,0 11.197,-0.203 16.947,-0.562 -2.246,-0.716 -4.641,-1.389 -7.051,-2.267 m -84.101,-82.46 c -1.682,-0.491 -6.622,-0.497 -9.637,-0.497 -8.473,-0.008 -13.817,-0.173 -16.793,-3.287 -4.625,-4.838 -0.016,-10.945 3.033,-14.986 0.691,-0.915 1.701,-2.255 2.352,-3.274 -5.903,-6.419 -11.666,-12.932 -17.368,-19.479 l -46.638,8.103 c 4.724,4.093 9.469,8.092 14.232,11.961 15.975,13.009 32.043,24.8 47.865,35.063 15.78,10.316 31.135,19.399 45.737,26.964 3.597,1.995 7.275,3.639 10.785,5.417 3.541,1.705 6.939,3.511 10.387,4.983 6.843,3.04 13.277,6.071 19.507,8.471 3.096,1.254 6.09,2.467 8.981,3.637 2.904,1.141 5.75,2.107 8.461,3.108 1.08,0.393 2.131,0.777 3.176,1.157 -28.381,-16.785 -55.512,-38.61 -84.08,-67.341 m -48.471,-53.221 -48.64,9.076 c 2.89,2.637 5.791,5.248 8.706,7.809 l 47.35,-8.225 c -2.488,-2.88 -4.963,-5.764 -7.416,-8.66 m -12.027,-14.391 -51.474,9.493 c 3.865,3.752 7.759,7.44 11.673,11.06 l 49.271,-9.192 c -3.181,-3.777 -6.34,-7.563 -9.47,-11.361 m -16.034,-19.749 -55.591,8.838 c 1.784,1.881 3.578,3.75 5.376,5.606 l 53.844,-9.93 c -1.211,-1.506 -2.426,-3.008 -3.629,-4.514 m -34.685,-44.14 c -6.036,-7.753 -11.983,-15.395 -17.848,-22.866 l -64.66,2.074 c 9.998,13.488 20.493,26.79 31.339,39.79 5.306,6.351 10.719,12.61 16.223,18.76 l 57.329,-9.111 c -7.551,-9.59 -15.004,-19.16 -22.383,-28.647 m -33.761,-42.914 -64.145,0.64 c 2.135,3.072 4.283,6.14 6.469,9.202 2.122,2.981 4.278,5.948 6.452,8.911 l 64.493,-2.067 c -4.471,-5.678 -8.894,-11.249 -13.269,-16.686 m -24.596,-29.502 -58.06,2.409 c 5.196,8.095 10.573,16.212 16.14,24.309 l 63.754,-0.636 c -7.409,-9.145 -14.683,-17.883 -21.834,-26.082 m -11.409,-12.717 -54.511,2.661 c 1.185,1.913 2.381,3.827 3.589,5.746 l 56.449,-2.345 c -1.852,-2.062 -3.692,-4.08 -5.527,-6.062 m 79.965,-46.145 c 17.547,-5.668 31.404,-10.146 38.912,-10.915 l 0.309,-0.033 51.523,3.965 c 3.461,-8.8 15.141,-42.548 6.012,-76.824 l -57.35,5.399 c 0.356,2.043 0.656,4.298 0.901,6.57 0.713,6.691 0.97,13.339 0.97,13.339 0,0 -1.965,-6.378 -4.324,-12.538 -1.111,-2.903 -2.322,-5.747 -3.369,-7.778 l -0.545,-0.827 c -9.174,-13.861 -17.709,-14.976 -30.627,-16.667 -5.243,-0.686 -11.184,-1.464 -17.879,-3.232 -6.763,-1.786 -12.64,-4.091 -18.325,-6.324 -11.001,-4.316 -21.395,-8.392 -37.211,-8.394 -4.193,0 -8.697,0.295 -13.384,0.876 -6.999,0.868 -13.85,1.29 -20.937,1.29 -0.117,0 -0.231,-0.002 -0.347,-0.004 l -0.021,0.044 -0.083,-0.044 c -9.979,-0.025 -18.584,-0.867 -26.905,-1.682 -5.991,-0.588 -11.692,-1.121 -17.254,-1.277 l -2.921,8.049 -0.885,-2.356 0.358,-5.752 c -1.421,0.008 -2.797,0.047 -4.135,0.118 -0.137,2.744 -2.106,8.863 -2.183,10.389 l -1.651,-2.988 c 0.113,-2.246 0.256,-4.887 0.37,-7.135 -0.605,0.06 -1.21,0.123 -1.807,0.198 -5.563,0.704 -11.962,1.062 -19.014,1.062 -3.437,0 -6.794,-0.085 -9.986,-0.219 -1.192,3.493 -3.452,9.777 -4.932,11.826 -1.838,2.548 -8.818,1.501 -14.715,0.048 0.375,0.888 0.754,1.791 1.136,2.696 8.603,8.042 21.84,11.991 40.173,11.991 5.58,0 10.854,-0.351 14.827,-0.655 l 0.392,-0.016 h 0.002 c 0.139,0 0.299,0.022 0.45,0.033 0.418,-0.401 0.807,-0.865 1.23,-1.325 0.422,-0.473 0.867,-0.95 1.251,-1.413 0.348,-0.481 0.67,-0.93 0.947,-1.312 0.568,-0.818 0.948,-1.364 0.948,-1.364 0,0 0.036,0.658 0.091,1.642 0.021,0.515 0.045,1.118 0.071,1.763 -0.02,0.636 -0.074,1.3 -0.116,1.988 -0.036,0.428 -0.062,0.857 -0.097,1.282 5.201,2.126 13.967,6.989 28.796,15.403 11.918,6.762 24.205,13.732 30.336,16.19 1.109,0.307 2.32,0.615 3.552,0.868 2.031,0.418 4.088,0.677 5.568,0.513 0.739,-0.078 1.31,-0.286 1.66,-0.551 0.351,-0.266 0.452,-0.551 0.469,-0.538 -0.024,-0.007 0.062,0.275 -0.1,0.787 -0.163,0.505 -0.634,1.17 -1.333,1.759 -0.15,0.13 -0.336,0.25 -0.504,0.376 l 0.901,0.305 -4.151,1.617 c -0.629,0.303 -1.272,0.595 -1.925,0.868 -1.228,0.511 -2.457,0.958 -3.605,1.351 -7.107,3.395 -16.856,15.15 -20.974,20.665 0.224,0.771 0.468,1.574 0.73,2.376 0.583,1.788 1.227,3.567 1.885,4.751 0.322,0.575 0.702,1.047 0.928,0.928 0.287,-0.162 0.35,-0.488 0.365,-0.458 0,0 -0.004,0.061 -0.01,0.173 -0.002,0.115 -0.005,0.296 -0.167,0.513 -0.172,0.264 -0.654,0.249 -0.939,0.114 -0.33,-0.12 -0.637,-0.311 -0.958,-0.529 -1.268,-0.889 -2.683,-2.284 -4.053,-3.707 -0.438,-0.458 -0.864,-0.916 -1.281,-1.369 l -1.472,-0.68 c -4.565,-2.107 -17.697,-2.967 -29.285,-3.723 -21.859,-1.43 -31.769,-2.509 -34.95,-6.849 -0.545,-0.739 -1.121,-1.476 -1.712,-2.209 0.967,1.998 1.964,4.011 3.03,6.032 2.052,3.999 4.14,8.067 6.262,12.197 0.491,0.96 0.993,1.935 1.488,2.903 l 1.685,-0.211 c 2.344,-0.293 4.739,-0.442 7.121,-0.442 24.142,0 48.513,15.212 73.9,39.471 27.117,-2.455 62.336,-13.816 88.873,-22.388 M 180.293,108.078 c -0.859,0.073 -3.752,1.039 -9.716,4.27 -0.196,0.722 -0.405,1.407 -0.617,2.038 3.996,0.286 8.161,0.488 12.566,0.53 0.345,-2.414 0.053,-5.107 -2.233,-6.838 m -14.128,-7.107 c -2.323,0.508 -11.179,6.152 -12.883,7.449 l -0.026,-0.034 c -0.347,1.663 -0.764,3.169 -1.139,4.375 1.786,0.164 3.589,0.341 5.42,0.52 2.901,0.284 5.842,0.571 8.856,0.824 1.362,-3.763 3.108,-10.383 -0.228,-13.134 M 148.67,95.913 c -1.768,0.702 -7.643,4.097 -26.235,17.004 1.179,-0.111 2.346,-0.229 3.456,-0.369 3.424,-0.435 6.957,-0.647 10.793,-0.647 3.94,0 7.888,0.237 11.905,0.562 0.477,-1.484 0.994,-3.391 1.371,-5.4 l -0.033,-0.042 0.053,-0.06 c 0.787,-4.245 0.934,-8.924 -1.31,-11.048 m -73.446,22.459 c -0.547,0.345 -1.349,1.009 -1.925,2.024 1.028,2.475 2.058,5.175 3.15,7.759 5.869,1.58 12.378,2.651 13.581,1.881 0.965,-1.336 2.751,-6.004 4.138,-9.979 -9.091,-0.502 -16.299,-1.349 -18.944,-1.685 m 80.094,76.412 c -10.292,-1.437 -20.015,-2.799 -24.742,-4.057 l -8.24,3.541 6.28,-5.916 c -1.786,-7.066 -14.509,-23.105 -18.953,-24.677 l -0.727,-0.256 -8.462,0.512 9.399,-3.786 8.198,-6.485 c -10.735,-0.112 -19.933,-1.514 -27.623,-4.276 -1.252,0.877 -2.66,1.891 -3.827,2.802 0.77,1.75 1.561,3.515 2.386,5.299 1.553,3.45 3.145,6.989 4.774,10.612 0.817,1.809 1.64,3.642 2.475,5.495 0.768,1.609 1.549,3.237 2.331,4.878 6.412,5.016 11.705,10.35 15.806,15.947 2.423,2.321 18.959,3.404 29.903,4.119 11.56,0.756 22.57,1.476 29.037,3.364 0.788,-1.035 1.826,-2.369 3.053,-3.869 -5.253,-1.039 -14.06,-2.27 -21.068,-3.247 m -5.275,-9.99 -0.571,0.014 -6.56,2.729 5.189,-5.078 C 146.61,176.775 137.938,166.09 132.173,162.06 l -7.491,-1.289 6.743,-1.161 6.679,-5.283 c -1.591,-0.728 -2.818,-1.206 -3.489,-1.308 -3.048,0.235 -6.83,0.489 -10.944,0.605 l -10.366,8.199 c 6.552,4.727 16.775,18.588 18.652,25.702 4.733,1.175 14.435,2.531 23.836,3.843 12.509,1.746 19.33,2.807 23.101,3.687 1.443,-1.667 3.038,-3.418 4.725,-5.138 -8.957,-2.317 -25.884,-5.339 -33.576,-5.123 m 10.08,-6.163 -3.92,3.113 c 8.526,0.869 22.383,3.045 30.203,5.456 1.501,-1.394 3.039,-2.714 4.588,-3.878 -4.428,-1.791 -21.61,-4.83 -30.871,-4.691 m -18.187,-21.61 -1.385,-0.238 -4.711,3.729 c 6.21,5.047 13.757,14.676 15.541,20.853 0.919,0.039 2.066,0.121 3.367,0.239 l 2.99,-4.958 c -1.183,-5.383 -9.671,-15.408 -15.802,-19.625 m 19.003,18.17 c 4.211,0.079 11.77,0.802 18.695,1.954 -4.624,-2.547 -9.665,-5.407 -14.826,-8.334 -3.92,-2.224 -8.329,-4.724 -12.564,-7.073 3.943,4.32 7.525,9.381 8.695,13.453 m -94.963,-31.53 c -5.317,-5.882 -12.127,-10.157 -18.508,-11.849 2.475,4.479 7.854,14.547 8.225,18.015 0.443,4.114 -2.806,6.044 -6.159,7.084 1.471,9.552 7.799,25.662 9.85,28.694 2.953,4.367 29.609,35.459 36.952,39.326 2.714,1.428 8.322,3.337 16.042,5.939 -0.318,-0.613 -0.635,-1.227 -0.953,-1.838 l -0.409,-0.793 -0.426,-0.861 -0.782,-1.59 c -1.038,-2.112 -2.073,-4.212 -3.099,-6.293 -2.048,-4.168 -4.066,-8.269 -6.05,-12.304 -2.025,-3.998 -3.837,-8.089 -5.676,-12.052 -1.826,-3.972 -3.619,-7.868 -5.374,-11.685 -0.683,-1.49 -1.352,-2.956 -2.022,-4.421 -3.198,-2.129 -6.629,-4.192 -10.299,-6.184 l -1.315,-0.714 -4.938,0.988 4.401,-2.977 0.067,-0.671 c 0.893,-8.867 -2.49,-18.033 -9.527,-25.814 M 42.458,131.846 c 1.104,4.381 3.24,11.955 6.271,21.69 2.684,-0.852 3.697,-1.87 3.538,-3.343 -0.274,-2.576 -5.27,-12.202 -8.59,-18.106 -0.383,-0.093 -0.799,-0.175 -1.219,-0.241 m 154.377,135.04 c -24.716,-24.361 -47.943,-39.713 -70.065,-39.713 -0.877,0 -1.756,0.027 -2.633,0.076 -0.128,0.42 -0.244,0.843 -0.367,1.266 7.129,13.267 14.87,26.928 23.153,40.805 z m -73.252,27.049 c 1.188,4.743 7.34,19.325 18.28,39.594 l 8.082,-35.855 c -2.585,-4.191 -5.126,-8.373 -7.611,-12.542 -7.821,-13.105 -15.087,-26.094 -21.854,-38.782 -1.954,20.107 1.166,39.834 3.103,47.585 m 37.805,73.023 9.103,-37.468 c -2.538,-3.761 -5.047,-7.525 -7.505,-11.289 l -8.545,37.39 c 2.211,3.7 4.503,7.472 6.947,11.367 m 41.322,7.16 c -6.558,-8.475 -12.916,-17.067 -19.083,-25.707 l -9.261,38.38 c 5.966,8.771 12.43,17.815 19.413,27.002 z m 2.865,54.695 10.064,-38.49 c -3.449,-4.195 -6.844,-8.425 -10.184,-12.69 l -8.946,39.726 c 2.935,3.803 5.96,7.622 9.066,11.454 m 8.574,10.34 c 1.424,-1.546 3.403,-3.215 6.239,-3.215 1.413,0 3.498,0.44 5.405,2.541 2.318,2.556 4.078,7.258 6.753,14.715 0.113,0.313 0.233,0.646 0.355,0.987 l 8.715,-33.333 -0.204,0.032 -0.142,-0.884 c -7.828,-8.593 -15.486,-17.401 -22.927,-26.387 l -10.07,38.51 c 1.928,2.343 3.885,4.69 5.876,7.034 m 23.355,25.866 c 8.607,8.95 17.33,17.401 26.16,25.367 l 8.837,-38.203 c -9.521,-9.205 -18.882,-18.787 -28.015,-28.678 l -9.489,36.295 c 0.95,2.413 1.885,4.524 2.507,5.219 m 41.02,38.231 9.572,-36.456 c -4.258,-3.863 -8.496,-7.802 -12.701,-11.821 l -8.799,38.04 c 3.955,3.509 7.931,6.923 11.928,10.237 m 11.321,9.067 8.442,-36.468 c -2.444,-2.121 -4.878,-4.28 -7.31,-6.458 l -9.521,36.26 c 2.786,2.271 5.583,4.492 8.389,6.666 m 18.94,13.853 8.065,-34.83 c -1.252,-1.006 -2.502,-2.031 -3.754,-3.049 l -8.149,35.197 c 1.278,0.901 2.557,1.801 3.838,2.682 m 21.389,13.694 7.771,-32.341 c -2.035,-1.49 -4.07,-2.999 -6.105,-4.532 l -7.69,33.214 c 2.004,1.241 4.012,2.464 6.024,3.659 m 27.672,14.811 6.5,-29.086 c -1.586,-1.013 -3.176,-2.027 -4.772,-3.063 -2.156,-1.407 -4.316,-2.846 -6.476,-4.31 l -7.305,30.399 c 4.002,2.112 8.02,4.13 12.053,6.06 m 19.259,8.459 5.17,-26.542 c -4.892,-2.884 -9.841,-5.903 -14.836,-9.046 l -6.398,28.631 c 5.328,2.48 10.684,4.798 16.064,6.957 m 15.616,5.794 5.142,-23.507 c -4.099,-2.226 -8.246,-4.554 -12.435,-6.987 l -5.065,25.99 c 4.106,1.596 8.225,3.095 12.358,4.504 m 131.519,18.306 c -4.162,0.571 -8.193,1.105 -12.123,1.597 l -0.342,1.237 c 0,0 -1.043,-0.283 -3.041,-0.821 -15.775,1.903 -29.923,3.08 -43.968,3.08 -15.577,0 -29.856,-1.514 -43.655,-4.625 -3.955,-0.891 -5.355,-4.633 -6.244,-7.812 -2.32,2.195 -4.592,4.121 -7.554,4.121 -0.577,0 -1.145,-0.079 -1.694,-0.234 -62.094,-17.469 -121.164,-55.016 -175.568,-111.591 -2.495,-2.595 -4.399,-7.587 -7.236,-15.5 -0.898,-2.498 -2.081,-5.796 -3.108,-8.221 -1.367,1.379 -3.196,2.717 -5.712,2.717 -1.178,0 -3.45,-0.344 -5.435,-2.653 -19.27,-22.421 -35.964,-45.31 -49.766,-66.403 L 158,380.908 c -7.251,-11.135 -13.692,-21.751 -19.268,-31.514 l -0.319,-0.559 c -14.342,-25.177 -22.91,-44.593 -24.862,-52.395 -2.317,-9.27 -6.182,-34.469 -2.36,-58.671 -0.083,-0.028 -0.173,-0.059 -0.255,-0.086 -8.778,-2.96 -14.649,-4.915 -17.949,-6.654 -9.263,-4.874 -37.268,-38.133 -39.586,-41.563 -2.781,-4.11 -9.734,-21.983 -11.091,-32.504 -1.159,-3.697 -8.147,-25.318 -8.147,-29.075 v -2.855 l 3.074,-0.531 c 1.358,-0.257 3.2,-0.389 4.664,-0.389 9.569,0 20.475,5.499 28.745,14.383 -0.861,-2.147 -1.745,-4.264 -2.565,-6.312 -0.066,-0.162 -0.144,-0.311 -0.206,-0.465 -0.163,-0.262 -0.351,-0.507 -0.511,-0.774 l -0.261,-0.529 c -0.473,-1.235 -0.827,-2.43 -1.067,-3.59 -0.399,-1.109 -0.798,-2.217 -1.184,-3.292 C 62.905,118 61.245,112.869 59.802,108.212 56.967,98.866 55.46,91.21 54.404,86.058 c -0.975,-5.191 -1.321,-8.003 -1.321,-8.003 0,0 1.496,2.434 3.97,7.079 1.189,2.34 2.697,5.207 4.321,8.616 1.59,3.428 3.414,7.369 5.458,11.78 1.127,2.467 2.305,5.104 3.509,7.877 1.502,-1.203 2.844,-1.732 3.097,-1.826 l 0.807,-0.296 0.852,0.117 c 0.155,0.023 15.734,2.154 32.644,2.154 2.801,0 5.458,-0.073 8.02,-0.188 25.754,-18.023 31.429,-21.035 33.386,-21.035 0.468,0 0.726,0.171 0.992,0.349 3.379,2.346 4.088,6.775 3.778,11.12 3.642,-2.469 9.68,-6.205 12.706,-6.205 0.475,0.001 0.874,0.091 1.179,0.297 3.34,2.317 3.977,6.288 3.593,10.121 5.282,-2.709 7.79,-3.406 9.122,-3.406 0.809,0 1.19,0.256 1.503,0.465 3.563,2.473 4.353,6.284 3.984,9.83 6.17,-0.062 12.181,-0.449 18.303,-1.207 4.969,-0.615 9.755,-0.929 14.233,-0.929 17.12,0.002 28.615,4.51 39.73,8.871 5.5,2.158 11.189,4.39 17.565,6.074 6.268,1.656 11.732,2.372 17.012,3.063 12.538,1.641 23.45,3.095 33.872,17.405 l 0.115,-0.077 c 0,0 0.094,0.212 0.254,0.569 0.021,0.029 0.043,0.054 0.062,0.083 l 64.176,-6.039 0.811,2.709 c 12.859,43.029 -5.686,84.804 -6.479,86.56 l -0.998,2.201 -55.801,-4.293 c -6.894,0.794 -20.957,5.335 -37.201,10.583 -25.029,8.086 -57.679,18.617 -84.634,22.063 25.489,25.648 52.055,59.781 80.478,96.308 28.625,36.783 58.225,74.819 91.043,110.347 4.494,4.865 0.088,10.703 -3.129,14.964 -0.342,0.451 -0.76,1.008 -1.174,1.573 2.141,0.123 4.791,0.126 6.69,0.127 8.338,0.008 13.601,0.165 16.574,3.162 42.933,43.249 82.385,70.476 127.914,88.278 l 18.519,7.241 z"
           style="fill:#000000;fill-opacity:1;fill-rule:nonzero;stroke:none"
           id="path9929"
           inkscape:connector-curvature="0" /></g></g></g></g></svg>